<svg width="60" height="60" viewBox="0 0 60 60" fill="none" xmlns="http://www.w3.org/2000/svg">
<g clip-path="url(#clip0_2_249)">
<path d="M28.445 46.0041C25.9692 49.3052 24.1562 53.086 23.1427 57.1375C23.0782 57.3825 23.0214 57.6275 22.9673 57.8725C23.0163 57.625 23.073 57.38 23.1349 57.135C24.1098 53.0679 25.9022 49.2691 28.3728 45.9551C28.396 45.9731 28.4193 45.9886 28.445 46.0041Z" fill="url(#paint0_linear_2_249)"/>
<path d="M24.8193 13.6328C21.0901 17.5219 18.9805 22.6825 18.916 28.0674C18.8567 33.1222 20.6027 38.0171 23.8213 41.8856C23.9347 42.0197 24.0482 42.1538 24.1643 42.2853C24.2674 42.4039 24.3706 42.52 24.4763 42.636C22.3177 46.9868 21.5569 51.8972 22.2971 56.6941C22.2971 56.6966 22.2971 56.6992 22.2997 56.7018C22.4054 57.4316 22.5524 58.1563 22.7329 58.8759H22.7536C22.818 58.5406 22.8877 58.2053 22.965 57.8727C22.8903 58.2079 22.8232 58.5458 22.7613 58.8862C26.1011 59.8198 29.575 60.1602 33.0308 59.892C33.0411 59.892 33.054 59.8894 33.0643 59.8894L33.0746 59.8946L33.0824 59.8894C33.3944 59.8636 33.7091 59.8353 34.016 59.8017C34.3203 59.7682 34.6478 59.7269 34.9625 59.6857C35.2771 59.6418 35.5917 59.5877 35.9038 59.5335C36.1772 59.4871 36.4454 59.4355 36.7162 59.3814C36.9844 59.3272 37.2758 59.2627 37.5543 59.2008H37.5724C37.624 59.1905 37.6756 59.1776 37.7246 59.1673L37.9489 59.1131C38.1965 59.0487 38.4441 58.9842 38.6865 58.9197C38.6865 58.9197 38.6882 58.9189 38.6917 58.9171C38.8928 58.8604 39.0863 58.8088 39.2797 58.7495C39.3209 58.7392 39.3648 58.7263 39.406 58.7134C39.5066 58.6876 39.6072 58.6592 39.7026 58.6257C39.9141 58.5612 40.123 58.4916 40.3345 58.4194C40.417 58.3962 40.4944 58.3704 40.5743 58.342C40.7961 58.2647 41.0205 58.1796 41.2449 58.097C41.3171 58.0712 41.3893 58.048 41.4615 58.0171C41.4744 58.0119 41.4873 58.0068 41.5002 58.0016C41.5105 57.9964 41.5234 57.9913 41.5337 57.9861C41.7297 57.9139 41.9231 57.8365 42.1191 57.7514C42.1707 57.736 42.2197 57.7179 42.2687 57.6973H42.2713C42.3177 57.6767 42.3641 57.656 42.4106 57.6354C42.4982 57.5993 42.5834 57.5632 42.671 57.5271C42.6814 57.5219 42.6942 57.5168 42.7046 57.5116C42.8026 57.4678 42.898 57.4239 42.996 57.3775C42.9986 57.3749 43.0037 57.3749 43.0063 57.3749C43.0579 57.3543 43.112 57.3311 43.1636 57.3079C43.2126 57.2821 43.259 57.2589 43.308 57.2331C43.357 57.2124 43.406 57.1918 43.455 57.1712C43.5531 57.1273 43.6485 57.0809 43.7465 57.0345C43.7955 57.0113 43.8445 56.9855 43.8935 56.9623C43.9915 56.9159 44.0921 56.8669 44.1849 56.8178C44.3861 56.7224 44.5872 56.6193 44.7858 56.511C45.0489 56.3743 45.3093 56.2273 45.5672 56.0828C45.5672 56.0828 45.5724 56.0828 45.575 56.0803C45.8277 55.9333 46.0959 55.7708 46.3461 55.6238C46.4415 55.567 46.5369 55.5103 46.6298 55.451C46.7046 55.402 46.7819 55.3556 46.8567 55.3092C46.9367 55.2576 47.014 55.2086 47.094 55.157C47.7387 54.7469 48.3629 54.3008 48.9715 53.8391C49.2216 53.6431 49.4486 53.4703 49.7142 53.2537C49.9824 53.0371 50.2403 52.823 50.4957 52.5986C50.524 52.5754 50.5524 52.5496 50.5834 52.5213C50.8051 52.3304 51.0321 52.1215 51.241 51.9255C51.4525 51.7295 51.6665 51.5361 51.8599 51.3298C52.0302 51.1699 52.1926 51.0022 52.35 50.8372C52.4325 50.7547 52.5099 50.6721 52.5821 50.587C52.7084 50.4658 52.809 50.3395 52.9483 50.1976C53.0901 50.0583 53.2165 49.9165 53.3403 49.7695C53.4254 49.6612 53.5079 49.5606 53.6214 49.4368C53.7349 49.3156 53.8174 49.2073 53.9386 49.0629C53.985 49.0087 54.034 48.9494 54.083 48.8926C54.0392 48.9494 53.9928 49.0061 53.9463 49.0629C53.8922 49.1273 53.8432 49.1866 53.7993 49.2408C53.7684 49.2769 53.7349 49.3156 53.7065 49.3491C53.6807 49.3801 53.6549 49.4084 53.6265 49.4394C53.5156 49.5632 53.4331 49.6638 53.3454 49.7721C53.2268 49.9139 53.1056 50.0454 52.9741 50.1821C52.9689 50.1899 52.9612 50.195 52.9534 50.2028C52.9483 50.2053 52.9431 50.2105 52.9405 50.2157C52.9354 50.2234 52.9251 50.2311 52.9199 50.2389C52.8322 50.342 52.742 50.44 52.6465 50.5329C52.6414 50.538 52.6336 50.5458 52.6285 50.5509C52.6156 50.5664 52.6027 50.5819 52.5898 50.5948C52.5588 50.6309 52.5253 50.667 52.4944 50.7031C52.4892 50.7082 52.4841 50.716 52.4763 50.7211C52.4351 50.7624 52.3964 50.8037 52.3551 50.8449C52.2803 50.9249 52.2029 51.0048 52.1256 51.0848C52.0482 51.1647 51.9683 51.2447 51.8857 51.322L51.878 51.3298C51.878 51.3298 51.8703 51.3349 51.8677 51.3375C51.8445 51.3607 51.8238 51.3814 51.8032 51.3994L51.798 51.4046C51.633 51.5774 51.4679 51.7373 51.2952 51.8894C51.29 51.8946 51.2823 51.8997 51.2771 51.9049L51.2668 51.9178L51.2461 51.9358C51.1533 52.0235 51.0527 52.1112 50.9676 52.1937C50.9521 52.2092 50.9367 52.2247 50.9186 52.2402C50.8103 52.3356 50.702 52.4258 50.5988 52.5135C50.5911 52.5213 50.5834 52.5264 50.5782 52.5316C50.5679 52.5445 50.555 52.5548 50.5447 52.5625C50.5266 52.5806 50.5086 52.5935 50.4905 52.609C50.4467 52.6502 50.4028 52.6915 50.3564 52.7302C50.3048 52.774 50.2532 52.8179 50.1991 52.8617C50.0469 52.9984 49.8896 53.1247 49.7349 53.2511C49.7271 53.2563 49.722 53.2614 49.7142 53.2692C49.4795 53.4626 49.2423 53.6586 49.0024 53.8314L48.9715 53.8546C48.4841 54.226 47.9863 54.5896 47.4731 54.9249C47.3442 55.0126 47.2126 55.0951 47.0837 55.1725C46.8335 55.3349 46.5911 55.4923 46.3358 55.6418C46.083 55.7914 45.8148 55.9539 45.5569 56.0983C45.299 56.2453 45.0385 56.3923 44.7755 56.529C44.5769 56.6373 44.3757 56.7379 44.1772 56.8359C44.0817 56.8849 43.9812 56.9339 43.8832 56.9777C43.6897 57.0757 43.4937 57.1738 43.2977 57.2511C43.1972 57.3053 43.094 57.3543 42.9883 57.393L42.9031 57.4342C42.7304 57.5116 42.5653 57.5864 42.3951 57.6534C42.3022 57.6973 42.2042 57.7385 42.1037 57.7695C41.9077 57.8546 41.7142 57.932 41.5182 58.0042C41.4202 58.048 41.3248 58.0816 41.2268 58.1177C41.0024 58.2002 40.7781 58.2827 40.5511 58.3601C40.4737 58.391 40.3964 58.4168 40.3113 58.44C40.1024 58.5122 39.8935 58.5793 39.682 58.6438C39.584 58.6773 39.486 58.7082 39.3854 58.7315C39.1507 58.8062 38.9109 58.8733 38.671 58.9352C38.4312 58.9997 38.1785 59.0693 37.9283 59.1312L37.5569 59.2189H37.5311C37.2526 59.2834 36.9767 59.3453 36.693 59.3994C36.4067 59.4562 36.1565 59.5077 35.8806 59.5516C35.5685 59.6057 35.2565 59.6599 34.9393 59.7037C34.622 59.7501 34.31 59.7888 33.9902 59.8224C33.673 59.8533 33.3712 59.8868 33.0592 59.91H33.0411C29.5672 60.1808 26.0727 59.8404 22.7175 58.8991C17.9489 57.5683 13.5827 55.077 10.0108 51.647C6.43636 48.2195 3.76969 43.959 2.24294 39.2473C0.718758 34.538 0.380911 29.5219 1.2655 24.6502C2.14751 19.7785 4.22359 15.2008 7.30548 11.3246C10.3874 7.451 14.3822 4.39748 18.9315 2.44262C23.4808 0.485168 28.4428 -0.314316 33.3764 0.111216C38.3074 0.539327 43.0579 2.18214 47.2023 4.89007C51.3467 7.60058 54.7561 11.2937 57.1262 15.6418C56.1643 14.3446 55.0579 13.1609 53.8277 12.1138C53.8148 12.0983 53.7993 12.0854 53.7839 12.0751C49.6601 8.60896 44.3732 6.84236 38.9934 7.1312C33.6137 7.42005 28.546 9.74371 24.8193 13.6328Z" fill="url(#paint1_linear_2_249)"/>
<path d="M54.8754 47.8711C54.8341 47.9304 54.7903 47.9897 54.749 48.0465C54.7 48.1135 54.6484 48.1806 54.5943 48.2476C54.5917 48.2502 54.5891 48.2554 54.5865 48.2579C54.5865 48.2579 54.5762 48.2683 54.5762 48.2734L54.3132 48.6138L54.3028 48.6242C54.29 48.6396 54.2796 48.6551 54.2642 48.6706C54.2771 48.6525 54.2874 48.6371 54.2977 48.6216C54.3854 48.5004 54.486 48.3792 54.5788 48.2554L54.6175 48.2089C54.633 48.1909 54.6459 48.1754 54.6562 48.1599C54.6665 48.1496 54.6742 48.1393 54.682 48.129C54.749 48.0439 54.8135 47.9588 54.8754 47.8711Z" fill="url(#paint2_linear_2_249)"/>
<path d="M54.9465 47.7754L54.9081 47.8291C54.8979 47.8444 54.8877 47.8572 54.8774 47.87C54.8902 47.8521 54.9056 47.8317 54.9184 47.8112L54.9465 47.7754Z" fill="url(#paint3_linear_2_249)"/>
<path d="M55.5869 46.8711C55.5482 46.9304 55.507 46.9923 55.4657 47.0516C55.4244 47.1109 55.3832 47.1703 55.3419 47.2296C55.262 47.3456 55.182 47.4591 55.0969 47.5726C55.0763 47.5984 55.0582 47.6242 55.0376 47.6499C55.1872 47.4462 55.329 47.2425 55.4709 47.0361C55.5096 46.9794 55.5457 46.9253 55.5869 46.8711Z" fill="url(#paint4_linear_2_249)"/>
<path d="M55.9368 46.3457C55.9035 46.3969 55.8703 46.4506 55.837 46.5043H55.8345C55.8677 46.4506 55.9035 46.3969 55.9368 46.3457Z" fill="url(#paint5_linear_2_249)"/>
<path d="M58.1331 42.3008C58.0557 42.4762 57.9758 42.6489 57.8958 42.8217C57.8958 42.8243 57.8932 42.8269 57.8932 42.8269C57.8107 42.9971 57.7282 43.1673 57.6431 43.3375C57.8133 42.9945 57.9783 42.6489 58.1331 42.3008Z" fill="url(#paint6_linear_2_249)"/>
<path d="M37.5753 59.2002C37.5753 59.2002 37.5598 59.2028 37.5521 59.2054C36.6984 59.4065 35.8345 59.569 34.9602 59.6902C34.6481 59.734 34.3309 59.7727 34.0137 59.8063C33.6965 59.8398 33.3947 59.8707 33.0827 59.8939L33.0724 59.8991L33.0621 59.8939C33.0621 59.8939 33.044 59.8914 33.0337 59.8914C33.044 59.8914 33.0569 59.8888 33.0672 59.8888L33.0775 59.8939L33.0853 59.8888C33.3973 59.863 33.712 59.8346 34.0189 59.8011C34.3232 59.7676 34.6507 59.7263 34.9653 59.685C35.28 59.6412 35.5946 59.587 35.9067 59.5329C36.18 59.4865 36.4483 59.4349 36.7191 59.3807C36.9873 59.3266 37.2787 59.2621 37.5572 59.2002H37.5753Z" fill="url(#paint7_linear_2_249)"/>
<path d="M28.444 46.0015H28.4415C25.9656 49.3052 24.1526 53.086 23.1391 57.1375C23.1365 57.1375 23.1339 57.1375 23.1313 57.135C24.1062 53.0679 25.8986 49.2691 28.3693 45.9551C28.395 45.968 28.4183 45.986 28.444 46.0015Z" fill="url(#paint8_linear_2_249)"/>
<path d="M53.7939 12.0656C49.6727 8.57366 44.3754 6.78385 38.9828 7.06238C33.5875 7.34091 28.5018 9.66715 24.7623 13.5666C21.0253 17.466 18.9131 22.6446 18.8616 28.045C18.8126 33.1152 20.5792 38.0205 23.8209 41.8864C23.9344 42.0205 24.0479 42.1546 24.164 42.2861C24.2671 42.4022 24.3729 42.5182 24.4786 42.6343H24.476V42.6394C22.3174 46.9876 21.5566 51.898 22.2968 56.6949C22.2968 56.6975 22.2968 56.7 22.2993 56.7026C18.8822 54.8509 15.8983 52.3003 13.5411 49.2133C11.1839 46.1236 9.50502 42.5724 8.62043 38.789C7.73584 35.0056 7.66105 31.0779 8.4038 27.2635C9.14397 23.4492 10.6862 19.8361 12.9273 16.6613C15.1659 13.4866 18.0543 10.8225 21.3967 8.84446C24.7416 6.86638 28.4683 5.61815 32.329 5.18488C36.1897 4.74903 40.0995 5.13846 43.7977 6.32479C47.4986 7.51112 50.9054 9.46599 53.7939 12.0656Z" fill="url(#paint9_linear_2_249)"/>
<path d="M54.8795 47.8711C54.8382 47.9304 54.7944 47.9897 54.7531 48.0465C54.7299 48.0748 54.7092 48.1032 54.686 48.129C54.7531 48.0439 54.8176 47.9588 54.8795 47.8711Z" fill="url(#paint10_linear_2_249)"/>
<path d="M54.9195 47.8105C54.9195 47.8105 54.9143 47.8237 54.909 47.829C54.8985 47.8447 54.888 47.8579 54.8774 47.871C54.8906 47.8526 54.9064 47.8316 54.9195 47.8105Z" fill="url(#paint11_linear_2_249)"/>
<path d="M55.5869 46.8711C55.5482 46.9304 55.507 46.9923 55.4657 47.0516C55.4244 47.1109 55.3832 47.1703 55.3419 47.2296C55.262 47.3456 55.182 47.4591 55.0969 47.5726C55.0763 47.5984 55.0582 47.6242 55.0376 47.6499C55.1872 47.4462 55.329 47.2425 55.4709 47.0361C55.5096 46.9794 55.5457 46.9253 55.5869 46.8711Z" fill="url(#paint12_linear_2_249)"/>
<path d="M55.7784 46.582C55.7554 46.6204 55.7298 46.6613 55.7017 46.6997C55.7017 46.6946 55.7017 46.6894 55.7093 46.6843C55.7323 46.6511 55.7554 46.6178 55.7784 46.582Z" fill="url(#paint13_linear_2_249)"/>
<path d="M56.0124 46.2334C56.0124 46.2334 56.0073 46.2411 56.0073 46.2437C55.9866 46.2747 55.966 46.3082 55.9428 46.3443C55.9093 46.3985 55.8732 46.4526 55.8371 46.5068H55.8345C55.868 46.4526 55.9041 46.3985 55.9376 46.3469C55.9402 46.3417 55.9454 46.334 55.9479 46.3288C55.9686 46.3005 55.9866 46.2747 56.0021 46.2463C56.0047 46.2411 56.0073 46.2386 56.0124 46.2334Z" fill="url(#paint14_linear_2_249)"/>
<path d="M56.7568 44.9824C56.7285 45.0366 56.6975 45.0907 56.6666 45.1449C56.5531 45.3383 56.4345 45.5343 56.3184 45.7303C56.2359 45.8722 56.1482 46.0114 56.0605 46.1481C56.0425 46.1765 56.0244 46.2049 56.0063 46.2332C56.0218 46.21 56.0347 46.1868 56.0502 46.161C56.0553 46.1507 56.0605 46.143 56.0657 46.1326C56.1508 46.0011 56.2333 45.8644 56.3158 45.7303C56.3158 45.7252 56.321 45.72 56.3236 45.7149C56.4422 45.5188 56.5583 45.3228 56.6717 45.1294C56.7001 45.0804 56.7285 45.0314 56.7568 44.9824Z" fill="url(#paint15_linear_2_249)"/>
<path d="M57.5981 43.4355C57.5337 43.5697 57.4666 43.7012 57.397 43.8327C57.4486 43.7296 57.5027 43.6238 57.5543 43.5181C57.5698 43.4923 57.5852 43.4639 57.5981 43.4355Z" fill="url(#paint16_linear_2_249)"/>
<path d="M58.1343 42.3008C58.057 42.4762 57.977 42.6489 57.8971 42.8217C57.8971 42.8243 57.8945 42.8269 57.8945 42.8269C57.8119 43.0048 57.7268 43.1776 57.6392 43.353C57.6392 43.3478 57.6392 43.3427 57.6443 43.3375C57.8145 42.9945 57.9796 42.6489 58.1343 42.3008Z" fill="url(#paint17_linear_2_249)"/>
<path d="M58.8181 40.6582C58.8129 40.6788 58.8052 40.6969 58.7974 40.7175C58.7355 40.88 58.6711 41.0425 58.604 41.2024C58.6762 41.0218 58.7484 40.8413 58.8181 40.6582Z" fill="url(#paint18_linear_2_249)"/>
<path d="M59.4404 38.8594C59.4172 38.9393 59.3914 39.0167 59.3656 39.0966C59.3089 39.2772 59.2495 39.4603 59.1876 39.6408C59.1257 39.8213 59.0639 40.0019 58.9968 40.1798C58.9401 40.3397 58.8807 40.4996 58.8188 40.6569C58.8885 40.4764 58.9555 40.2933 59.02 40.1102C59.1515 39.7414 59.2779 39.3726 59.394 39.0012C59.4094 38.9548 59.4249 38.9084 59.4404 38.8594Z" fill="url(#paint19_linear_2_249)"/>
<path d="M59.7181 37.9219C59.713 37.9502 59.7052 37.976 59.6975 38.0018C59.6562 38.1462 59.615 38.2907 59.5737 38.4325C59.5634 38.4738 59.5505 38.5125 59.5376 38.5511C59.5505 38.5125 59.5608 38.4738 59.5711 38.4351C59.6227 38.2649 59.6717 38.0947 59.7181 37.9219Z" fill="url(#paint20_linear_2_249)"/>
<path d="M59.8803 37.3027C59.87 37.344 59.8622 37.3827 59.8519 37.4239C59.8519 37.4265 59.8519 37.4317 59.8493 37.4343C59.8493 37.4343 59.8493 37.442 59.8468 37.4446C59.8236 37.5374 59.7978 37.6303 59.772 37.7231C59.8003 37.6225 59.8261 37.5194 59.8493 37.4188C59.8622 37.3801 59.8726 37.3414 59.8803 37.3027Z" fill="url(#paint21_linear_2_249)"/>
<path d="M57.6545 18.3907C57.6545 19.7189 57.26 21.0187 56.5224 22.1225C55.7848 23.2263 54.7351 24.0877 53.5075 24.5958C52.2799 25.1038 50.9286 25.2379 49.6262 24.9775C48.3238 24.717 47.1271 24.0774 46.1858 23.1386C45.2471 22.1999 44.6075 21.0033 44.347 19.6983C44.0865 18.3959 44.2206 17.0445 44.7287 15.8169C45.2367 14.5893 46.0981 13.5397 47.2019 12.8021C48.3057 12.0645 49.6055 11.6699 50.9337 11.6699C52.7158 11.6699 54.4257 12.3766 55.6842 13.6377C56.9427 14.8988 57.652 16.6061 57.652 18.3882L57.6545 18.3907Z" fill="url(#paint22_linear_2_249)"/>
<path d="M59.8989 36.7149C59.8989 36.9547 59.8834 37.1894 59.8473 37.4189C59.8241 37.5195 59.7983 37.6227 59.77 37.7232C59.7545 37.7903 59.7364 37.8573 59.7158 37.9218C59.6694 38.0946 59.6204 38.2648 59.5688 38.435C59.5585 38.4737 59.5482 38.5124 59.5353 38.5511C59.5198 38.6027 59.5043 38.6568 59.4888 38.7084C59.4888 38.7084 59.488 38.7101 59.4863 38.7136C59.4863 38.7136 59.4863 38.7162 59.4837 38.7187C59.4708 38.7677 59.4579 38.8141 59.4424 38.8606C59.427 38.9096 59.4115 38.956 59.396 39.0024C59.2799 39.3738 59.1536 39.7426 59.0221 40.1114C58.9576 40.2945 58.8905 40.4776 58.8209 40.6581C58.7513 40.8412 58.6791 41.0218 58.6068 41.2023C58.5346 41.3854 58.4598 41.5685 58.3825 41.749C58.3773 41.7593 58.3747 41.7671 58.3696 41.7774C58.2948 41.9528 58.2174 42.1281 58.1375 42.3009C57.9827 42.6491 57.8177 42.9947 57.6475 43.3377C57.6449 43.3428 57.6423 43.348 57.6423 43.3532H57.6397C57.6268 43.3841 57.6114 43.4099 57.5985 43.4357C57.5856 43.4641 57.5701 43.4924 57.5546 43.5182C57.503 43.624 57.4489 43.7297 57.3973 43.8329C57.338 43.9437 57.2812 44.0521 57.2219 44.1604C57.2065 44.1887 57.191 44.2197 57.1755 44.2481C57.1729 44.2532 57.1703 44.2558 57.1678 44.261C57.0904 44.4054 57.0104 44.5498 56.9305 44.6916C56.9279 44.6968 56.9253 44.702 56.9202 44.7071C56.897 44.751 56.8738 44.7922 56.848 44.8335C56.8222 44.8851 56.7912 44.9341 56.7629 44.9831C56.7345 45.0321 56.7061 45.0811 56.6778 45.1301C56.5643 45.3235 56.4482 45.5195 56.3296 45.7155C56.327 45.7207 56.3244 45.7258 56.3219 45.731C56.2393 45.8651 56.1568 46.0018 56.0717 46.1333C56.0665 46.1436 56.0614 46.1514 56.0562 46.1617C56.0408 46.1875 56.0279 46.2107 56.0124 46.2339C56.0072 46.239 56.0046 46.2416 56.0021 46.2468C55.9866 46.2751 55.9685 46.3009 55.9479 46.3293C55.9453 46.3345 55.9402 46.3422 55.9376 46.3474C55.9041 46.3989 55.868 46.4531 55.8344 46.5073C55.8164 46.533 55.8009 46.5588 55.7854 46.582C55.7622 46.6181 55.739 46.6517 55.7158 46.6852C55.7106 46.6904 55.7081 46.6955 55.7081 46.7007H55.7055C55.6668 46.76 55.6281 46.8142 55.5894 46.8709C55.5482 46.925 55.5121 46.9792 55.4734 47.0359C55.3315 47.2423 55.1897 47.446 55.0401 47.6497C55.0195 47.6755 54.9988 47.7039 54.9782 47.7297L54.9679 47.7452L54.9473 47.7761L54.9189 47.8122C54.906 47.8328 54.8905 47.8535 54.8776 47.8715C54.8157 47.9592 54.7513 48.0443 54.6842 48.1294C54.6765 48.1397 54.6687 48.1501 54.6584 48.1604C54.6481 48.1759 54.6352 48.1913 54.6197 48.2094L54.581 48.2558C54.4882 48.3796 54.3876 48.5008 54.2999 48.622C54.2896 48.6375 54.2793 48.653 54.2664 48.671C54.2535 48.6865 54.238 48.7045 54.2251 48.7226C54.1813 48.7768 54.1349 48.8335 54.0859 48.8928C54.0369 48.9495 53.9879 49.0089 53.9415 49.063C53.8202 49.2074 53.7377 49.3158 53.6242 49.437C53.5108 49.5608 53.4282 49.6613 53.3431 49.7697C53.2193 49.9167 53.093 50.0585 52.9511 50.1978C52.8119 50.3396 52.7113 50.466 52.5849 50.5872C52.5127 50.6723 52.4353 50.7548 52.3528 50.8374C52.1955 51.0024 52.033 51.17 51.8628 51.3299C51.6694 51.5363 51.4553 51.7297 51.2438 51.9257C51.0349 52.1217 50.808 52.3306 50.5862 52.5214C50.5553 52.5498 50.5269 52.5756 50.4985 52.5988C50.2432 52.8232 49.9853 53.0372 49.7171 53.2539C49.4515 53.4705 49.2245 53.6433 48.9743 53.8393C48.3657 54.3009 47.7416 54.7471 47.0968 55.1572C47.0169 55.2087 46.9395 55.2577 46.8596 55.3093C46.7848 55.3557 46.7074 55.4022 46.6326 55.4512C46.5398 55.5105 46.4444 55.5672 46.3489 55.6239C46.0988 55.771 45.8306 55.9334 45.5778 56.0804C45.5752 56.083 45.5727 56.083 45.5701 56.083C45.3122 56.2274 45.0517 56.3744 44.7887 56.5111C44.5901 56.6194 44.3889 56.7226 44.1878 56.818C44.0949 56.867 43.9943 56.916 43.8963 56.9624C43.8473 56.9857 43.7983 57.0114 43.7493 57.0347C43.6513 57.0811 43.5559 57.1275 43.4579 57.1713C43.4089 57.192 43.3599 57.2126 43.3109 57.2332C43.2619 57.259 43.2155 57.2822 43.1665 57.308C43.1149 57.3312 43.0607 57.3544 43.0092 57.3751C43.0092 57.3751 43.0014 57.3751 42.9988 57.3777C42.9008 57.4241 42.8054 57.4679 42.7074 57.5118C42.6971 57.5169 42.6842 57.5221 42.6739 57.5272C42.5862 57.5633 42.5011 57.5995 42.4134 57.6356C42.367 57.6562 42.3206 57.6768 42.2742 57.6975H42.2716C42.2226 57.7181 42.1736 57.7361 42.122 57.7516C41.926 57.8367 41.7326 57.9141 41.5366 57.9863C41.5262 57.9915 41.5134 57.9966 41.503 58.0018C41.4901 58.0069 41.4772 58.0121 41.4643 58.0172C41.3921 58.0482 41.3199 58.0714 41.2477 58.0972C41.0233 58.1797 40.799 58.2648 40.5772 58.3422C40.4972 58.3706 40.4199 58.3964 40.3373 58.4196C40.1259 58.4918 39.917 58.5614 39.7055 58.6259C39.6101 58.6594 39.5095 58.6878 39.4089 58.7136C39.3676 58.7265 39.3238 58.7394 39.2825 58.7497C39.0891 58.809 38.8957 58.8606 38.6945 58.9173C38.6945 58.9173 38.6928 58.9182 38.6894 58.9199C38.4469 58.9844 38.1994 59.0488 37.9518 59.1133L37.7274 59.1675C37.6784 59.1778 37.6268 59.1907 37.5752 59.201H37.5572C37.2787 59.2629 36.9872 59.3274 36.719 59.3815C36.4482 59.4357 36.18 59.4873 35.9066 59.5337C35.5946 59.5878 35.28 59.642 34.9653 59.6858C34.6507 59.7271 34.3232 59.7684 34.0188 59.8019C33.7119 59.8354 33.3973 59.8638 33.0852 59.8896L33.0775 59.8947L33.0672 59.8896C33.0672 59.8896 33.044 59.8922 33.0337 59.8922C29.5778 60.1604 26.1039 59.82 22.7642 58.8864C22.8261 58.5459 22.8931 58.2081 22.9679 57.8728C23.0221 57.6278 23.0788 57.3828 23.1433 57.1378C24.1568 53.0862 25.9698 49.3054 28.4457 46.0044H28.4482C30.3567 43.4563 32.6623 41.1946 35.298 39.3145C39.9092 36.2068 45.2039 34.3757 50.6558 33.9347C53.4257 33.7078 56.2342 33.8419 59.0143 34.3499C59.1304 34.3938 59.2516 34.435 59.3702 34.4711C59.6152 34.9586 59.7829 35.4898 59.8525 36.0521C59.8525 36.0546 59.8576 36.0598 59.8525 36.0624C59.8809 36.2764 59.8963 36.4931 59.8963 36.7149H59.8989Z" fill="url(#paint23_linear_2_249)"/>
<path d="M28.4476 46.0015H28.445C25.9692 49.3052 24.1562 53.086 23.1427 57.1375C23.0782 57.3825 23.0214 57.6275 22.9673 57.8725C23.0163 57.625 23.073 57.38 23.1349 57.135C24.1098 53.0679 25.9022 49.2691 28.3728 45.9551C28.3986 45.968 28.4218 45.986 28.4476 46.0015Z" fill="url(#paint24_linear_2_249)"/>
<path d="M37.7276 59.166L37.5843 59.1993H37.5767C37.6278 59.189 37.679 59.1762 37.7276 59.166Z" fill="url(#paint25_linear_2_249)"/>
<path d="M42.271 57.6973C42.222 57.7179 42.1756 57.7359 42.1266 57.7514C41.9306 57.8339 41.7345 57.9113 41.5411 57.9861C41.5282 57.9913 41.5153 57.9964 41.5024 58.0016C41.5128 57.9964 41.5256 57.9913 41.536 57.9861C41.732 57.9139 41.9254 57.8365 42.1214 57.7514C42.173 57.7359 42.222 57.7179 42.271 57.6973Z" fill="url(#paint26_linear_2_249)"/>
<path d="M42.6717 57.5273C42.5866 57.5634 42.5015 57.5996 42.4164 57.6357C42.3674 57.6563 42.321 57.6769 42.272 57.6976C42.3184 57.6769 42.3648 57.6563 42.4112 57.6357C42.4989 57.5996 42.584 57.5634 42.6717 57.5273Z" fill="url(#paint27_linear_2_249)"/>
<path d="M43.0112 57.375L42.9287 57.4137C42.8539 57.4472 42.7817 57.4807 42.7095 57.5117C42.8075 57.4678 42.9029 57.424 43.0009 57.3776C43.0035 57.375 43.0086 57.375 43.0112 57.375Z" fill="url(#paint28_linear_2_249)"/>
<path d="M43.454 57.1719C43.4102 57.1925 43.3638 57.2131 43.3173 57.2338C43.2683 57.2596 43.2168 57.2854 43.1626 57.3086C43.2116 57.2828 43.258 57.2596 43.307 57.2338C43.356 57.2131 43.405 57.1925 43.454 57.1719Z" fill="url(#paint29_linear_2_249)"/>
<path d="M45.5654 56.083C45.3126 56.2326 45.0548 56.377 44.7943 56.5085C44.5931 56.6169 44.3945 56.72 44.1934 56.818C44.0954 56.867 44.0051 56.916 43.9019 56.9599C43.8504 56.9856 43.7962 57.0114 43.7446 57.0346C43.7936 57.0114 43.8426 56.9856 43.8916 56.9624C43.9896 56.916 44.0902 56.867 44.1831 56.818C44.3842 56.7226 44.5854 56.6194 44.784 56.5111C45.047 56.3744 45.3075 56.2274 45.5654 56.083Z" fill="url(#paint30_linear_2_249)"/>
<path d="M46.6276 55.4502C46.5373 55.5044 46.447 55.5611 46.3542 55.6204C46.1014 55.7803 45.8307 55.9299 45.5728 56.0795C45.8255 55.9325 46.0937 55.77 46.3439 55.623C46.4393 55.5662 46.5347 55.5095 46.6276 55.4502Z" fill="url(#paint31_linear_2_249)"/>
<path d="M54.6181 48.209C54.6181 48.209 54.6026 48.2296 54.5949 48.2399V48.258C54.5072 48.3663 54.4195 48.4849 54.3318 48.5984L54.3241 48.6087C54.2054 48.7532 54.0687 48.9182 53.9656 49.0472C53.914 49.109 53.8573 49.1761 53.8005 49.2406C53.7696 49.2767 53.7361 49.3154 53.7077 49.3489C53.6871 49.3747 53.6664 49.3979 53.6484 49.4211C53.5607 49.5346 53.4627 49.6481 53.3647 49.7538C53.3595 49.759 53.3544 49.7667 53.3466 49.7719C53.228 49.9137 53.1068 50.0452 52.9753 50.1819C52.9701 50.1896 52.9624 50.1948 52.9546 50.2025C52.9495 50.2051 52.9443 50.2103 52.9417 50.2154V50.2206C52.854 50.3238 52.756 50.4295 52.6477 50.5326C52.6374 50.5507 52.6245 50.5662 52.609 50.5791C52.5729 50.6203 52.5342 50.6616 52.4956 50.7029C52.4904 50.708 52.4852 50.7158 52.4775 50.7209C52.4466 50.757 52.4105 50.7931 52.3744 50.8292C52.2944 50.9143 52.2119 51.002 52.1268 51.0846C52.0494 51.1645 51.9695 51.2444 51.8869 51.3218L51.8792 51.3296C51.856 51.3553 51.8302 51.3811 51.8044 51.3992L51.7992 51.4043C51.6342 51.5771 51.4691 51.737 51.2963 51.8892L51.268 51.9176C51.1854 52.0052 51.0823 52.0929 50.9894 52.178C50.9662 52.1987 50.943 52.2193 50.9198 52.2399C50.8115 52.3354 50.7032 52.4256 50.6 52.5133C50.5923 52.521 50.5845 52.5262 50.5794 52.5314C50.5691 52.5443 50.5562 52.5546 50.5459 52.5623C50.533 52.5726 50.5226 52.5829 50.5123 52.5933C50.4608 52.6397 50.4092 52.6835 50.3576 52.7299C50.306 52.7738 50.2544 52.8176 50.2003 52.8615C50.0481 52.9982 49.8908 53.1245 49.7361 53.2509C49.7283 53.2561 49.7232 53.2612 49.7154 53.2689C49.4859 53.4521 49.2538 53.6377 49.0217 53.8131L48.9933 53.8363C48.5033 54.2077 48.0056 54.5688 47.4923 54.904L47.1029 55.1542C47.0204 55.2058 46.9379 55.2573 46.8579 55.3089C46.9379 55.2573 47.0152 55.2083 47.0952 55.1568C47.7399 54.7467 48.364 54.3005 48.9727 53.8389C49.2228 53.6429 49.4498 53.4701 49.7154 53.2535C49.9836 53.0368 50.2415 52.8228 50.4969 52.5984C50.5252 52.5752 50.5536 52.5494 50.5845 52.521C50.8063 52.3302 51.0333 52.1213 51.2422 51.9253C51.4537 51.7293 51.6677 51.5359 51.8611 51.3296C52.0313 51.1697 52.1938 51.002 52.3511 50.837C52.4337 50.7544 52.511 50.6719 52.5833 50.5868C52.7096 50.4656 52.8102 50.3392 52.9495 50.1974C53.0913 50.0581 53.2177 49.9163 53.3415 49.7693C53.4266 49.661 53.5091 49.5604 53.6226 49.4366C53.7361 49.3154 53.8186 49.2071 53.9398 49.0626C53.9862 49.0085 54.0352 48.9492 54.0842 48.8924C54.1332 48.8331 54.1796 48.7764 54.2235 48.7222C54.2364 48.7042 54.2519 48.6861 54.2647 48.6706C54.2776 48.6526 54.288 48.6371 54.2983 48.6216C54.386 48.5004 54.4865 48.3792 54.5794 48.2554L54.6181 48.209Z" fill="url(#paint32_linear_2_249)"/>
<path d="M56.0131 46.2334C56.0131 46.2334 56.0078 46.2414 56.0078 46.2441C56.0051 46.2441 56.0024 46.2468 56.0024 46.2468C56.0051 46.2414 56.0078 46.2387 56.0131 46.2334Z" fill="url(#paint33_linear_2_249)"/>
<path d="M58.8181 40.6582C58.8129 40.6788 58.8052 40.6969 58.7974 40.7175C58.7355 40.88 58.6711 41.0425 58.604 41.2024C58.6762 41.0218 58.7484 40.8413 58.8181 40.6582Z" fill="url(#paint34_linear_2_249)"/>
<path d="M59.02 40.1104C59.0148 40.1336 59.0071 40.1568 58.9968 40.18C58.9401 40.3399 58.8807 40.4998 58.8188 40.6571C58.8885 40.4766 58.9555 40.2935 59.02 40.1104Z" fill="url(#paint35_linear_2_249)"/>
<path d="M59.3959 39.002C59.3882 39.0329 59.3779 39.0664 59.3676 39.0974C59.3108 39.2779 59.2515 39.461 59.1896 39.6415C59.1355 39.7989 59.0813 39.9562 59.022 40.1109C59.1535 39.7421 59.2799 39.3733 59.3959 39.002Z" fill="url(#paint36_linear_2_249)"/>
<path d="M59.7119 37.9219C59.7068 37.9502 59.699 37.976 59.6913 38.0018C59.65 38.1462 59.6088 38.2907 59.5675 38.4325C59.5675 38.4351 59.5649 38.4351 59.5649 38.4351C59.6165 38.2649 59.6655 38.0947 59.7119 37.9219Z" fill="url(#paint37_linear_2_249)"/>
<path d="M59.8803 37.3027C59.87 37.344 59.8622 37.3827 59.8519 37.4239C59.8519 37.4265 59.8519 37.4317 59.8493 37.4343C59.8493 37.4343 59.8493 37.442 59.8468 37.4446C59.8236 37.5374 59.7978 37.6303 59.772 37.7231C59.8003 37.6225 59.8261 37.5194 59.8493 37.4188C59.8622 37.3801 59.8726 37.3414 59.8803 37.3027Z" fill="url(#paint38_linear_2_249)"/>
<path d="M59.3676 34.4711C59.2489 34.435 59.1277 34.3937 59.0117 34.3499C56.2315 33.8418 53.423 33.7077 50.6532 33.9346C45.2012 34.3756 39.9066 36.2067 35.2954 39.317C32.6596 41.1945 30.354 43.4562 28.4456 46.0017C28.4198 45.9862 28.3966 45.9682 28.3708 45.9527C25.9001 49.2693 24.1077 53.0681 23.1329 57.1352C23.071 57.3802 23.0142 57.6252 22.9652 57.8727C22.8879 58.2054 22.8182 58.5407 22.7538 58.876H22.7331C22.5526 58.1564 22.4056 57.4317 22.2999 56.7019C22.2973 56.6993 22.2973 56.6967 22.2973 56.6942C21.5571 51.8972 22.3179 46.9869 24.4765 42.6387L24.4791 42.6335L24.5255 42.5407C25.9156 39.7451 27.8447 37.2538 30.2019 35.2035C32.5565 33.1558 35.2928 31.5904 38.2534 30.6C41.2141 29.6071 44.3424 29.21 47.4553 29.4266C50.5707 29.6458 53.6113 30.4737 56.4069 31.8663C56.5281 31.9256 56.6493 31.9875 56.768 32.0546C57.111 32.2299 57.4514 32.4182 57.7867 32.6168C58.4314 33.0758 58.9652 33.6871 59.3315 34.3963C59.3444 34.4195 59.3573 34.4453 59.3676 34.4711Z" fill="url(#paint39_linear_2_249)"/>
<path d="M28.4476 46.0015H28.445C25.9692 49.3052 24.1562 53.086 23.1427 57.1375C23.0782 57.3825 23.0214 57.6275 22.9673 57.8725C23.0163 57.625 23.073 57.38 23.1349 57.135C24.1098 53.0679 25.9022 49.2691 28.3728 45.9551C28.3986 45.968 28.4218 45.986 28.4476 46.0015Z" fill="url(#paint40_linear_2_249)"/>
</g>
<defs>
<linearGradient id="paint0_linear_2_249" x1="26.614" y1="57.153" x2="24.7803" y2="46.6282" gradientUnits="userSpaceOnUse">
<stop stop-color="#6C5AEE"/>
<stop offset="0.26" stop-color="#5AA6ED"/>
<stop offset="0.71" stop-color="#5AA6ED"/>
<stop offset="1" stop-color="#6C5AEE"/>
</linearGradient>
<linearGradient id="paint1_linear_2_249" x1="35.0759" y1="59.2266" x2="24.8915" y2="0.828172" gradientUnits="userSpaceOnUse">
<stop stop-color="#6C5AEE"/>
<stop offset="0.26" stop-color="#5AA6ED"/>
<stop offset="0.71" stop-color="#5AA6ED"/>
<stop offset="1" stop-color="#6C5AEE"/>
</linearGradient>
<linearGradient id="paint2_linear_2_249" x1="54.6278" y1="48.6009" x2="54.5117" y2="47.9381" gradientUnits="userSpaceOnUse">
<stop stop-color="#6C5AEE"/>
<stop offset="0.26" stop-color="#5AA6ED"/>
<stop offset="0.71" stop-color="#5AA6ED"/>
<stop offset="1" stop-color="#6C5AEE"/>
</linearGradient>
<linearGradient id="paint3_linear_2_249" x1="54.9184" y1="47.8623" x2="54.9056" y2="47.7831" gradientUnits="userSpaceOnUse">
<stop stop-color="#6C5AEE"/>
<stop offset="0.26" stop-color="#5AA6ED"/>
<stop offset="0.71" stop-color="#5AA6ED"/>
<stop offset="1" stop-color="#6C5AEE"/>
</linearGradient>
<linearGradient id="paint4_linear_2_249" x1="55.3677" y1="47.588" x2="55.2542" y2="46.933" gradientUnits="userSpaceOnUse">
<stop stop-color="#6C5AEE"/>
<stop offset="0.26" stop-color="#5AA6ED"/>
<stop offset="0.71" stop-color="#5AA6ED"/>
<stop offset="1" stop-color="#6C5AEE"/>
</linearGradient>
<linearGradient id="paint5_linear_2_249" x1="55.8959" y1="46.494" x2="55.8728" y2="46.3585" gradientUnits="userSpaceOnUse">
<stop stop-color="#6C5AEE"/>
<stop offset="0.26" stop-color="#5AA6ED"/>
<stop offset="0.71" stop-color="#5AA6ED"/>
<stop offset="1" stop-color="#6C5AEE"/>
</linearGradient>
<linearGradient id="paint6_linear_2_249" x1="57.968" y1="43.2731" x2="57.8081" y2="42.3627" gradientUnits="userSpaceOnUse">
<stop stop-color="#6C5AEE"/>
<stop offset="0.26" stop-color="#5AA6ED"/>
<stop offset="0.71" stop-color="#5AA6ED"/>
<stop offset="1" stop-color="#6C5AEE"/>
</linearGradient>
<linearGradient id="paint7_linear_2_249" x1="35.3161" y1="59.6618" x2="35.2955" y2="59.4529" gradientUnits="userSpaceOnUse">
<stop stop-color="#7B29DA"/>
<stop offset="0.13" stop-color="#5A78ED"/>
<stop offset="0.5" stop-color="#5A78ED"/>
<stop offset="0.81" stop-color="#7B29DA"/>
</linearGradient>
<linearGradient id="paint8_linear_2_249" x1="26.2545" y1="56.2194" x2="25.357" y2="47.2884" gradientUnits="userSpaceOnUse">
<stop stop-color="#7B29DA"/>
<stop offset="0.13" stop-color="#5A78ED"/>
<stop offset="0.5" stop-color="#5A78ED"/>
<stop offset="0.81" stop-color="#7B29DA"/>
</linearGradient>
<linearGradient id="paint9_linear_2_249" x1="25.2879" y1="54.6546" x2="34.0502" y2="5.05062" gradientUnits="userSpaceOnUse">
<stop stop-color="#7B29DA"/>
<stop offset="0.284" stop-color="#5A78ED"/>
<stop offset="0.654" stop-color="#5A78ED"/>
<stop offset="1" stop-color="#7B29DA"/>
</linearGradient>
<linearGradient id="paint10_linear_2_249" x1="54.7918" y1="48.1058" x2="54.7737" y2="47.9046" gradientUnits="userSpaceOnUse">
<stop stop-color="#7B29DA"/>
<stop offset="0.13" stop-color="#5A78ED"/>
<stop offset="0.5" stop-color="#5A78ED"/>
<stop offset="0.81" stop-color="#7B29DA"/>
</linearGradient>
<linearGradient id="paint11_linear_2_249" x1="54.9011" y1="47.8658" x2="54.8959" y2="47.8184" gradientUnits="userSpaceOnUse">
<stop stop-color="#7B29DA"/>
<stop offset="0.13" stop-color="#5A78ED"/>
<stop offset="0.5" stop-color="#5A78ED"/>
<stop offset="0.81" stop-color="#7B29DA"/>
</linearGradient>
<linearGradient id="paint12_linear_2_249" x1="55.3445" y1="47.5777" x2="55.2826" y2="46.9717" gradientUnits="userSpaceOnUse">
<stop stop-color="#7B29DA"/>
<stop offset="0.13" stop-color="#5A78ED"/>
<stop offset="0.5" stop-color="#5A78ED"/>
<stop offset="0.81" stop-color="#7B29DA"/>
</linearGradient>
<linearGradient id="paint13_linear_2_249" x1="55.7451" y1="46.6894" x2="55.7349" y2="46.5974" gradientUnits="userSpaceOnUse">
<stop stop-color="#7B29DA"/>
<stop offset="0.13" stop-color="#5A78ED"/>
<stop offset="0.5" stop-color="#5A78ED"/>
<stop offset="0.81" stop-color="#7B29DA"/>
</linearGradient>
<linearGradient id="paint14_linear_2_249" x1="55.9351" y1="46.4836" x2="55.9118" y2="46.2695" gradientUnits="userSpaceOnUse">
<stop stop-color="#7B29DA"/>
<stop offset="0.13" stop-color="#5A78ED"/>
<stop offset="0.5" stop-color="#5A78ED"/>
<stop offset="0.81" stop-color="#7B29DA"/>
</linearGradient>
<linearGradient id="paint15_linear_2_249" x1="56.4319" y1="46.1249" x2="56.3339" y2="45.1397" gradientUnits="userSpaceOnUse">
<stop stop-color="#7B29DA"/>
<stop offset="0.13" stop-color="#5A78ED"/>
<stop offset="0.5" stop-color="#5A78ED"/>
<stop offset="0.81" stop-color="#7B29DA"/>
</linearGradient>
<linearGradient id="paint16_linear_2_249" x1="57.513" y1="43.7992" x2="57.4821" y2="43.4845" gradientUnits="userSpaceOnUse">
<stop stop-color="#7B29DA"/>
<stop offset="0.13" stop-color="#5A78ED"/>
<stop offset="0.5" stop-color="#5A78ED"/>
<stop offset="0.81" stop-color="#7B29DA"/>
</linearGradient>
<linearGradient id="paint17_linear_2_249" x1="57.9306" y1="43.2679" x2="57.8455" y2="42.4272" gradientUnits="userSpaceOnUse">
<stop stop-color="#7B29DA"/>
<stop offset="0.13" stop-color="#5A78ED"/>
<stop offset="0.5" stop-color="#5A78ED"/>
<stop offset="0.81" stop-color="#7B29DA"/>
</linearGradient>
<linearGradient id="paint18_linear_2_249" x1="58.733" y1="41.1611" x2="58.6891" y2="40.7227" gradientUnits="userSpaceOnUse">
<stop stop-color="#7B29DA"/>
<stop offset="0.13" stop-color="#5A78ED"/>
<stop offset="0.5" stop-color="#5A78ED"/>
<stop offset="0.81" stop-color="#7B29DA"/>
</linearGradient>
<linearGradient id="paint19_linear_2_249" x1="59.2057" y1="40.5202" x2="59.0587" y2="39.0657" gradientUnits="userSpaceOnUse">
<stop stop-color="#7B29DA"/>
<stop offset="0.13" stop-color="#5A78ED"/>
<stop offset="0.5" stop-color="#5A78ED"/>
<stop offset="0.81" stop-color="#7B29DA"/>
</linearGradient>
<linearGradient id="paint20_linear_2_249" x1="59.6537" y1="38.5047" x2="59.6021" y2="37.9941" gradientUnits="userSpaceOnUse">
<stop stop-color="#7B29DA"/>
<stop offset="0.13" stop-color="#5A78ED"/>
<stop offset="0.5" stop-color="#5A78ED"/>
<stop offset="0.81" stop-color="#7B29DA"/>
</linearGradient>
<linearGradient id="paint21_linear_2_249" x1="59.8442" y1="37.6922" x2="59.8081" y2="37.3492" gradientUnits="userSpaceOnUse">
<stop stop-color="#7B29DA"/>
<stop offset="0.13" stop-color="#5A78ED"/>
<stop offset="0.5" stop-color="#5A78ED"/>
<stop offset="0.81" stop-color="#7B29DA"/>
</linearGradient>
<linearGradient id="paint22_linear_2_249" x1="50.9363" y1="11.6699" x2="50.9363" y2="25.1064" gradientUnits="userSpaceOnUse">
<stop stop-color="#9B5AED"/>
<stop offset="0.744" stop-color="#6C5AEE"/>
</linearGradient>
<linearGradient id="paint23_linear_2_249" x1="59.8375" y1="33.9023" x2="23.4919" y2="59.7628" gradientUnits="userSpaceOnUse">
<stop stop-color="#7B29DA"/>
<stop offset="0.679" stop-color="#6C5AEE"/>
</linearGradient>
<linearGradient id="paint24_linear_2_249" x1="26.7326" y1="52.6733" x2="24.6307" y2="51.1646" gradientUnits="userSpaceOnUse">
<stop stop-color="#7B29DA"/>
<stop offset="1" stop-color="#6C5AEE"/>
</linearGradient>
<linearGradient id="paint25_linear_2_249" x1="37.6943" y1="59.2146" x2="37.6099" y2="59.1532" gradientUnits="userSpaceOnUse">
<stop stop-color="#7B29DA"/>
<stop offset="1" stop-color="#6C5AEE"/>
</linearGradient>
<linearGradient id="paint26_linear_2_249" x1="42.0724" y1="57.9835" x2="41.7062" y2="57.7205" gradientUnits="userSpaceOnUse">
<stop stop-color="#7B29DA"/>
<stop offset="1" stop-color="#6C5AEE"/>
</linearGradient>
<linearGradient id="paint27_linear_2_249" x1="42.566" y1="57.6795" x2="42.3803" y2="57.548" gradientUnits="userSpaceOnUse">
<stop stop-color="#7B29DA"/>
<stop offset="1" stop-color="#6C5AEE"/>
</linearGradient>
<linearGradient id="paint28_linear_2_249" x1="42.9287" y1="57.4936" x2="42.792" y2="57.3956" gradientUnits="userSpaceOnUse">
<stop stop-color="#7B29DA"/>
<stop offset="1" stop-color="#6C5AEE"/>
</linearGradient>
<linearGradient id="paint29_linear_2_249" x1="43.3741" y1="57.2879" x2="43.2451" y2="57.1951" gradientUnits="userSpaceOnUse">
<stop stop-color="#7B29DA"/>
<stop offset="1" stop-color="#6C5AEE"/>
</linearGradient>
<linearGradient id="paint30_linear_2_249" x1="45.0367" y1="56.8335" x2="44.2811" y2="56.2919" gradientUnits="userSpaceOnUse">
<stop stop-color="#7B29DA"/>
<stop offset="1" stop-color="#6C5AEE"/>
</linearGradient>
<linearGradient id="paint31_linear_2_249" x1="46.3026" y1="55.9118" x2="45.9029" y2="55.623" gradientUnits="userSpaceOnUse">
<stop stop-color="#7B29DA"/>
<stop offset="1" stop-color="#6C5AEE"/>
</linearGradient>
<linearGradient id="paint32_linear_2_249" x1="51.6419" y1="52.4076" x2="49.8624" y2="51.131" gradientUnits="userSpaceOnUse">
<stop stop-color="#7B29DA"/>
<stop offset="1" stop-color="#6C5AEE"/>
</linearGradient>
<linearGradient id="paint33_linear_2_249" x1="56.0105" y1="46.2414" x2="56.0078" y2="46.2387" gradientUnits="userSpaceOnUse">
<stop stop-color="#7B29DA"/>
<stop offset="1" stop-color="#6C5AEE"/>
</linearGradient>
<linearGradient id="paint34_linear_2_249" x1="58.7691" y1="40.9728" x2="58.653" y2="40.8877" gradientUnits="userSpaceOnUse">
<stop stop-color="#7B29DA"/>
<stop offset="1" stop-color="#6C5AEE"/>
</linearGradient>
<linearGradient id="paint35_linear_2_249" x1="58.9839" y1="40.4301" x2="58.855" y2="40.3399" gradientUnits="userSpaceOnUse">
<stop stop-color="#7B29DA"/>
<stop offset="1" stop-color="#6C5AEE"/>
</linearGradient>
<linearGradient id="paint36_linear_2_249" x1="59.3495" y1="39.6596" x2="59.0684" y2="39.4559" gradientUnits="userSpaceOnUse">
<stop stop-color="#7B29DA"/>
<stop offset="1" stop-color="#6C5AEE"/>
</linearGradient>
<linearGradient id="paint37_linear_2_249" x1="59.7145" y1="38.2339" x2="59.5649" y2="38.1256" gradientUnits="userSpaceOnUse">
<stop stop-color="#7B29DA"/>
<stop offset="1" stop-color="#6C5AEE"/>
</linearGradient>
<linearGradient id="paint38_linear_2_249" x1="59.8906" y1="37.5606" x2="59.7617" y2="37.4678" gradientUnits="userSpaceOnUse">
<stop stop-color="#7B29DA"/>
<stop offset="1" stop-color="#6C5AEE"/>
</linearGradient>
<linearGradient id="paint39_linear_2_249" x1="59.2747" y1="33.9136" x2="20.1886" y2="57.7917" gradientUnits="userSpaceOnUse">
<stop stop-color="#6C5AEE"/>
<stop offset="1" stop-color="#5AA6ED"/>
</linearGradient>
<linearGradient id="paint40_linear_2_249" x1="26.4257" y1="52.3871" x2="24.7829" y2="51.3555" gradientUnits="userSpaceOnUse">
<stop stop-color="#6C5AEE"/>
<stop offset="1" stop-color="#5AA6ED"/>
</linearGradient>
<clipPath id="clip0_2_249">
<rect width="59.1128" height="60" fill="white" transform="translate(0.783691)"/>
</clipPath>
</defs>
</svg>
